<?xml version="1.0" encoding="UTF-8"?>
<!DOCTYPE svg PUBLIC "-//W3C//DTD SVG 1.1//EN" "http://www.w3.org/Graphics/SVG/1.1/DTD/svg11.dtd">
<!-- Creator: CorelDRAW X7 -->
<svg xmlns="http://www.w3.org/2000/svg" xml:space="preserve" width="17mm" height="17mm" version="1.1" style="shape-rendering:geometricPrecision; text-rendering:geometricPrecision; image-rendering:optimizeQuality; fill-rule:evenodd; clip-rule:evenodd"
viewBox="0 0 156 156"
 xmlns:xlink="http://www.w3.org/1999/xlink">
 <defs>
  <style type="text/css">
   <![CDATA[
    .fil0 {fill:#00A0E3}
    .fil3 {fill:#2B2A29}
    .fil2 {fill:#E5097F}
    .fil1 {fill:#FECC00}
   ]]>
  </style>
 </defs>
 <g id="Слой_x0020_1">
  <metadata id="CorelCorpID_0Corel-Layer"/>
  <g id="_874483168">
   <path id="_367542640" class="fil0" d="M56 82c0,0 1,-6 1,-8 0,0 2,-5 1,-6 0,0 1,-3 -2,-3 0,0 -3,0 -4,7 0,0 0,2 0,2 0,0 -1,6 -2,6 0,0 -3,-1 -4,-3 0,0 -1,-4 -1,-4 0,0 -1,-2 -1,-3 0,0 0,-4 -1,-4 0,0 -1,-6 -1,-6 0,0 0,-1 0,-3 0,0 -2,-6 -4,-6 0,0 -3,0 -2,5l1 2c0,0 1,2 1,3 0,0 0,4 0,5 0,0 0,4 1,5 0,0 0,2 -1,2 0,0 0,1 -1,-2 0,0 -1,-5 -2,-5 0,0 -2,-7 -2,-7 0,0 -2,-5 -2,-5 0,0 -1,-3 -4,-2 0,0 -2,2 0,5 0,0 2,4 2,5 0,0 1,5 1,6 0,0 2,7 2,8 0,0 0,2 -1,-1 0,0 -2,-4 -3,-5 0,0 -2,-4 -2,-4 0,0 -1,-2 -1,-3 0,0 -1,-5 -4,-5 0,0 -2,0 -1,5 0,0 1,3 2,4 0,0 1,7 2,7 0,0 4,7 4,7 0,0 -2,3 -3,1 0,0 -1,-2 -2,-2 0,0 -3,-2 -4,-3 0,0 -1,-2 -2,-3 0,0 -2,-4 -4,-3 0,0 -3,2 3,7 0,0 3,4 3,5 0,0 5,5 5,6 0,0 5,9 5,9 0,0 3,4 6,6 0,0 3,3 8,0l4 0c0,0 5,-3 6,-6 0,0 3,-9 3,-16z">
    <metadata id="CorelCorpID_1">
     <odm name="Имя" value="_367542640" type="0"/>
    </metadata>
   </path>
   <path id="_367542520" class="fil1" d="M100 75c0,0 -1,6 -1,8 0,0 -1,5 -1,6 0,0 -1,3 2,3 0,0 4,0 4,-7 0,0 0,-2 1,-2 0,0 0,-6 1,-6 0,0 3,1 4,3 0,0 1,4 2,4 0,0 0,2 0,3 0,0 1,4 1,4 0,0 1,6 1,6 0,0 1,1 1,3 0,0 1,6 3,6 0,0 3,0 2,-5l-1 -2c0,0 -1,-2 -1,-3 0,0 0,-4 0,-5 0,0 0,-4 0,-5 0,0 -1,-2 0,-2 0,0 0,-1 1,2 0,0 1,5 2,5 0,0 2,7 3,7 0,0 1,5 2,5 0,0 1,3 3,2 0,0 2,-2 0,-5 0,0 -1,-4 -1,-5 0,0 -2,-5 -2,-5 0,0 -1,-8 -2,-8 0,0 0,-3 2,0 0,0 1,4 2,5 0,0 2,4 3,4 0,0 0,2 1,3 0,0 1,5 3,5 0,0 3,0 1,-5 0,0 -1,-3 -1,-4 0,0 -2,-7 -3,-7 0,0 -3,-7 -3,-7 0,0 1,-3 2,-1 0,0 2,2 3,2 0,0 2,2 3,3 0,0 1,2 2,3 0,0 3,4 4,3 0,0 3,-2 -2,-7 0,0 -3,-4 -4,-5 0,0 -4,-5 -5,-6 0,0 -5,-9 -5,-9 0,0 -2,-4 -5,-6 0,0 -4,-3 -9,0l-4 0c0,0 -5,3 -5,6 0,0 -4,9 -4,16z">
    <metadata id="CorelCorpID_2">
     <odm name="Имя" value="_367542520" type="0"/>
    </metadata>
   </path>
   <path id="_367542376" class="fil2" d="M72 20c0,0 6,0 8,-1 0,0 5,-1 6,-1 0,0 3,-1 3,2 0,0 0,4 -7,5 0,0 -2,0 -2,0 0,0 -6,1 -6,2 0,0 1,3 3,4 0,0 4,1 4,1 0,0 2,0 3,0 0,0 4,1 4,1 0,0 6,1 6,2 0,0 1,0 3,0 0,0 6,2 5,3 0,0 1,4 -4,2l-2 0c0,0 -2,-1 -3,-1 0,0 -4,0 -5,0 0,0 -4,-1 -5,-1 0,0 -2,0 -2,1 0,0 -1,0 2,1 0,0 5,1 5,1 0,0 7,2 7,3 0,0 5,2 5,2 0,0 3,1 2,4 0,0 -2,2 -5,0 0,0 -4,-2 -5,-2 0,0 -5,-1 -6,-1 0,0 -7,-2 -8,-2 0,0 -2,0 1,1 0,0 4,2 5,3 0,0 4,2 4,2 0,0 2,1 3,1 0,0 5,1 5,3 0,0 0,3 -5,2 0,0 -3,-1 -4,-2 0,0 -7,-2 -7,-2 0,0 -7,-4 -8,-4 0,0 -2,1 0,3 0,0 2,1 2,2 0,0 2,3 3,3 0,0 2,2 3,2 0,0 4,3 3,5 0,0 -2,2 -7,-3 0,0 -4,-3 -5,-3 0,0 -5,-5 -6,-5 0,0 -9,-5 -10,-5 0,0 -3,-3 -5,-6 0,0 -3,-4 0,-8l0 -4c0,0 3,-5 6,-6 0,0 9,-4 16,-4z">
    <metadata id="CorelCorpID_3">
     <odm name="Имя" value="_367542376" type="0"/>
    </metadata>
   </path>
   <path id="_367542304" class="fil3" d="M79 94c0,0 -7,-1 -8,-1 0,0 -6,-1 -7,-1 0,0 -3,-1 -3,2 0,0 1,4 8,4 0,0 1,1 2,1 0,0 6,1 6,1 0,0 -1,3 -4,4 0,0 -4,1 -4,2 0,0 -1,0 -2,0 0,0 -4,1 -5,1 0,0 -6,1 -6,1 0,0 -1,1 -2,1 0,0 -6,1 -6,3 0,0 -1,4 5,2l2 -1c0,0 2,0 3,0 0,0 3,0 4,-1 0,0 5,0 6,0 0,0 1,-1 2,0 0,0 1,1 -2,1 0,0 -6,2 -6,2 0,0 -6,2 -7,3 0,0 -4,1 -4,2 0,0 -4,1 -2,4 0,0 2,1 5,-1 0,0 4,-1 4,-1 0,0 5,-1 6,-2 0,0 7,-1 8,-2 0,0 2,0 -1,2 0,0 -3,1 -4,2 0,0 -4,2 -5,3 0,0 -1,0 -2,1 0,0 -6,1 -5,3 0,0 0,3 4,1 0,0 4,-1 4,-1 0,0 7,-2 8,-3 0,0 7,-3 7,-3 0,0 2,1 0,2 0,0 -1,2 -2,3 0,0 -2,2 -3,3 0,0 -1,2 -3,2 0,0 -4,3 -3,4 0,0 2,3 8,-2 0,0 4,-3 4,-4 0,0 5,-4 6,-5 0,0 9,-4 10,-4 0,0 4,-3 6,-6 0,0 2,-4 0,-9l-1 -3c0,0 -2,-5 -5,-6 0,0 -9,-4 -16,-4z">
    <metadata id="CorelCorpID_4">
     <odm name="Имя" value="_367542304" type="0"/>
    </metadata>
   </path>
  </g>
  <path class="fil3" d="M3 78c0,-41 34,-75 75,-75 42,0 75,34 75,75 0,42 -33,75 -75,75 -41,0 -75,-33 -75,-75zm153 0c0,-43 -35,-78 -78,-78 -43,0 -78,35 -78,78 0,43 35,78 78,78 43,0 78,-35 78,-78z"/>
 </g>
</svg>
