<?xml version="1.0" encoding="UTF-8"?>
<!DOCTYPE svg PUBLIC "-//W3C//DTD SVG 1.1//EN" "http://www.w3.org/Graphics/SVG/1.1/DTD/svg11.dtd">
<!-- Creator: CorelDRAW X7 -->
<svg xmlns="http://www.w3.org/2000/svg" xml:space="preserve" width="64.6042mm" height="55.6004mm" version="1.1" style="shape-rendering:geometricPrecision; text-rendering:geometricPrecision; image-rendering:optimizeQuality; fill-rule:evenodd; clip-rule:evenodd"
viewBox="0 0 58162 50056"
 xmlns:xlink="http://www.w3.org/1999/xlink">
 <defs>
  <style type="text/css">
   <![CDATA[
    .fil1 {fill:#00A0E3}
    .fil4 {fill:#2B2A29}
    .fil3 {fill:#E5097F}
    .fil2 {fill:#FECC00}
    .fil0 {fill:#434242;fill-rule:nonzero}
   ]]>
  </style>
 </defs>
 <g id="Слой_x0020_1">
  <metadata id="CorelCorpID_0Corel-Layer"/>
  <path class="fil0" d="M311 48890l0 707 -311 0 0 -1863 728 0c210,0 372,52 486,156 115,105 172,245 172,422 0,178 -57,319 -172,423 -114,103 -276,155 -486,155l-417 0zm0 -249l417 0c118,0 205,-31 262,-91 57,-60 85,-139 85,-236 0,-96 -28,-175 -85,-237 -57,-63 -144,-94 -262,-94l-417 0 0 658zm2508 118l-815 0 0 590 945 0 0 248 -1256 0 0 -1863 1247 0 0 249 -936 0 0 526 815 0 0 250zm919 31l-215 0 0 807 -311 0 0 -1863 311 0 0 789 178 0 584 -789 369 0 -671 889 723 974 -380 0 -588 -807zm2610 -1056l0 1863 -311 0 0 -1614 -582 0 -22 614c-13,364 -63,621 -151,772 -88,152 -237,228 -447,228l-79 0 0 -248 51 0c117,-5 196,-59 238,-164 42,-106 68,-301 79,-588l30 -863 1194 0zm1424 1417l-718 0 -154 446 -316 0 685 -1863 295 0 676 1863 -316 0 -152 -446zm-632 -249l547 0 -271 -792 -4 0 -272 792zm1740 -1168l539 1443 542 -1443 403 0 0 1863 -311 0 0 -635 32 -819 -4 0 -558 1454 -208 0 -556 -1450 -4 0 32 815 0 635 -310 0 0 -1863 403 0zm3347 1863l-310 0 0 -795 -834 0 0 795 -311 0 0 -1863 311 0 0 818 834 0 0 -818 310 0 0 1863zm1877 -764c0,229 -71,418 -212,567 -141,149 -327,223 -559,224 -226,-1 -409,-75 -546,-224 -138,-150 -207,-339 -207,-567l0 -336c0,-227 69,-416 206,-566 137,-149 319,-224 546,-224 231,0 418,75 559,224 142,150 213,339 213,566l0 336zm-311 -338c0,-154 -41,-282 -123,-382 -82,-100 -194,-150 -338,-150 -139,0 -247,50 -325,150 -79,99 -117,227 -117,382l0 338c0,157 39,285 117,385 79,101 187,151 326,151 145,0 257,-50 338,-151 81,-100 122,-228 122,-385l0 -338zm1222 435l-672 0 0 -251 672 0 0 251zm1757 667l-310 0 0 -1614 -835 0 0 1614 -311 0 0 -1863 1456 0 0 1863zm719 -707l0 707 -311 0 0 -1863 728 0c210,0 372,52 486,156 115,105 172,245 172,422 0,178 -57,319 -172,423 -114,103 -276,155 -486,155l-417 0zm0 -249l417 0c118,0 205,-31 262,-91 56,-60 85,-139 85,-236 0,-96 -29,-175 -85,-237 -57,-63 -144,-94 -262,-94l-417 0 0 658zm2850 192c0,229 -70,418 -211,567 -141,149 -327,223 -559,224 -227,-1 -409,-75 -547,-224 -137,-150 -206,-339 -206,-567l0 -336c0,-227 68,-416 206,-566 137,-149 319,-224 546,-224 231,0 418,75 559,224 142,150 212,339 212,566l0 336zm-310 -338c0,-154 -42,-282 -123,-382 -82,-100 -195,-150 -338,-150 -139,0 -247,50 -326,150 -78,99 -117,227 -117,382l0 338c0,157 40,285 118,385 78,101 187,151 326,151 145,0 257,-50 338,-151 81,-100 122,-228 122,-385l0 -338zm1800 -761l311 0 0 1863 -311 0 0 -1341 -4 0 -829 1341 -311 0 0 -1863 311 0 0 1339 4 0 829 -1339zm1302 789c118,0 204,-24 259,-74 55,-49 82,-118 82,-210 0,-83 -30,-150 -91,-203 -60,-53 -150,-80 -270,-80 -97,0 -177,26 -241,76 -63,51 -95,117 -95,197l-310 0c0,-160 61,-287 184,-381 123,-94 277,-141 462,-141 211,0 376,45 494,135 119,91 178,223 178,397 0,87 -26,165 -77,235 -51,69 -124,125 -218,166 106,37 186,92 241,164 55,72 82,162 82,271 0,174 -64,310 -192,405 -127,96 -297,143 -508,144 -186,-1 -345,-46 -476,-136 -132,-91 -197,-227 -197,-409l311 0c0,86 33,156 99,212 67,56 155,84 263,84 123,0 218,-27 286,-82 69,-55 103,-127 103,-217 0,-107 -30,-184 -91,-233 -60,-49 -153,-73 -278,-73l-217 0 0 -247 217 0zm996 1074l0 -1863 624 0c209,0 370,41 483,124 113,83 170,211 170,383 0,86 -24,161 -71,227 -48,65 -114,114 -198,146l0 4c110,23 194,76 252,157 58,81 87,177 87,287 0,178 -55,312 -166,401 -110,89 -268,134 -474,134l-707 0zm311 -848l0 600 396 0c108,0 190,-25 246,-75 56,-49 84,-120 84,-212 0,-101 -24,-178 -71,-232 -48,-54 -124,-81 -228,-81l-427 0zm0 -231l346 0c98,0 174,-22 228,-66 54,-45 81,-110 81,-196 0,-94 -29,-163 -85,-207 -56,-44 -142,-66 -257,-66l-313 0 0 535zm2836 315c0,229 -70,418 -212,567 -141,149 -327,223 -558,224 -227,-1 -409,-75 -547,-224 -137,-150 -207,-339 -207,-567l0 -336c0,-227 69,-416 207,-566 137,-149 319,-224 546,-224 231,0 417,75 559,224 142,150 212,339 212,566l0 336zm-311 -338c0,-154 -41,-282 -122,-382 -83,-100 -195,-150 -338,-150 -139,0 -248,50 -326,150 -78,99 -117,227 -117,382l0 338c0,157 39,285 118,385 78,101 187,151 326,151 144,0 257,-50 338,-151 81,-100 121,-228 121,-385l0 -338zm2365 1560l-298 0 0 -458 -1248 0 0 459 -302 0 -9 -707 153 0c67,-67 126,-165 177,-293 51,-128 81,-315 87,-560l48 -762 1165 0 0 1615 240 0 -13 706zm-1126 -1559c-8,198 -31,366 -70,503 -38,137 -90,254 -154,350l813 0 0 -1366 -559 0 -30 513zm2780 497c-18,196 -88,350 -209,462 -120,112 -289,168 -505,169 -221,-1 -396,-72 -527,-216 -130,-144 -195,-332 -195,-565l0 -354c0,-231 66,-420 197,-565 132,-145 307,-217 525,-217 221,0 390,55 508,165 118,111 187,269 208,473l-311 0c-16,-129 -55,-227 -116,-291 -61,-65 -157,-98 -289,-98 -129,0 -231,50 -304,149 -73,98 -109,226 -109,381l0 357c0,158 36,286 108,385 72,98 174,147 305,147 129,0 224,-31 286,-95 62,-63 101,-159 117,-287l311 0zm1635 -1010l-582 0 0 1614 -311 0 0 -1614 -580 0 0 -249 1473 0 0 249zm272 1614l0 -1863 625 0c208,0 370,41 482,124 113,83 170,211 170,383 0,86 -24,161 -71,227 -47,65 -113,114 -198,146l0 4c110,23 194,76 253,157 57,81 86,177 86,287 0,178 -55,312 -165,401 -111,89 -269,134 -474,134l-708 0zm311 -848l0 600 397 0c107,0 189,-25 245,-75 56,-49 85,-120 85,-212 0,-101 -24,-178 -72,-232 -48,-54 -123,-81 -228,-81l-427 0zm0 -231l347 0c98,0 174,-22 227,-66 54,-45 81,-110 81,-196 0,-94 -28,-163 -85,-207 -55,-44 -142,-66 -256,-66l-314 0 0 535zm2494 241l-815 0 0 590 945 0 0 248 -1256 0 0 -1863 1247 0 0 249 -936 0 0 526 815 0 0 250zm1848 838l-310 0 0 -795 -834 0 0 795 -311 0 0 -1863 311 0 0 818 834 0 0 -818 310 0 0 1863zm1863 0l-310 0 0 -795 -834 0 0 795 -311 0 0 -1863 311 0 0 818 834 0 0 -818 310 0 0 1863zm1425 -446l-718 0 -153 446 -316 0 684 -1863 296 0 675 1863 -315 0 -153 -446zm-632 -249l548 0 -272 -792 -3 0 -273 792zm1524 695l-333 0 420 -793c-112,-50 -195,-116 -250,-198 -56,-83 -83,-184 -83,-306 0,-185 58,-325 175,-422 117,-96 283,-144 497,-144l619 0 0 1863 -311 0 0 -703 -371 0 -363 703zm734 -1614l-308 0c-122,0 -213,29 -273,85 -60,57 -89,138 -89,244 0,109 30,193 90,252 60,59 151,88 272,88l308 0 0 -669zm1888 807l-215 0 0 807 -311 0 0 -1863 311 0 0 789 178 0 585 -789 369 0 -671 889 723 974 -380 0 -589 -807zm2632 43c0,229 -70,418 -212,567 -141,149 -327,223 -558,224 -227,-1 -410,-75 -547,-224 -138,-150 -207,-339 -207,-567l0 -336c0,-227 69,-416 206,-566 137,-149 320,-224 547,-224 231,0 417,75 559,224 141,150 212,339 212,566l0 336zm-311 -338c0,-154 -41,-282 -123,-382 -82,-100 -194,-150 -337,-150 -140,0 -248,50 -326,150 -78,99 -117,227 -117,382l0 338c0,157 39,285 117,385 79,101 188,151 327,151 144,0 256,-50 338,-151 80,-100 121,-228 121,-385l0 -338zm1066 -761l540 1443 541 -1443 403 0 0 1863 -311 0 0 -635 32 -819 -3 0 -559 1454 -208 0 -555 -1450 -4 0 32 815 0 635 -311 0 0 -1863 403 0zm3349 1863l-310 0 0 -1614 -836 0 0 1614 -311 0 0 -1863 1457 0 0 1863zm1425 -446l-718 0 -153 446 -316 0 684 -1863 296 0 675 1863 -316 0 -152 -446zm-632 -249l548 0 -272 -792 -3 0 -273 792zm2791 695l-309 0 0 -795 -834 0 0 795 -311 0 0 -1863 311 0 0 818 834 0 0 -818 309 0 0 1863zm1546 -1863l311 0 0 1863 -311 0 0 -1341 -3 0 -830 1341 -311 0 0 -1863 311 0 0 1339 4 0 829 -1339zm905 1863l-333 0 420 -793c-112,-50 -195,-116 -250,-198 -55,-83 -83,-184 -83,-306 0,-185 59,-325 175,-422 117,-96 283,-144 497,-144l619 0 0 1863 -311 0 0 -703 -371 0 -363 703zm734 -1614l-308 0c-122,0 -213,29 -273,85 -60,57 -89,138 -89,244 0,109 30,193 90,252 60,59 151,88 272,88l308 0 0 -669z"/>
  <path class="fil0" d="M1278 45854l-1278 0 1612 -3047c-429,-191 -750,-444 -961,-760 -211,-317 -317,-706 -317,-1172 0,-712 225,-1252 673,-1623 449,-369 1085,-555 1907,-555l2379 0 0 7157 -1195 0 0 -2698 -1424 0 -1396 2698zm2820 -6197l-1184 0c-468,0 -817,109 -1047,325 -230,218 -344,530 -344,938 0,419 116,741 347,968 230,225 579,339 1044,339l1184 0 0 -2570zm3922 3484l0 2713 -1194 0 0 -7157 2796 0c806,0 1428,202 1867,602 440,401 660,942 660,1621 0,684 -220,1226 -660,1624 -439,397 -1061,597 -1867,597l-1602 0zm0 -960l1602 0c452,0 787,-115 1005,-347 218,-233 327,-535 327,-906 0,-369 -109,-674 -327,-912 -218,-240 -553,-359 -1005,-359l-1602 0 0 2524zm7328 576l-826 0 0 3097 -1194 0 0 -7157 1194 0 0 3033 683 0 2246 -3033 1416 0 -2577 3417 2778 3740 -1459 0 -2261 -3097zm8835 -4060l1195 0 0 7157 -1195 0 0 -5150 -13 0 -3186 5150 -1194 0 0 -7157 1194 0 0 5147 15 0 3184 -5147zm7126 0l1195 0 0 7157 -1195 0 0 -5150 -13 0 -3186 5150 -1194 0 0 -7157 1194 0 0 5147 15 0 3184 -5147zm-1 -2103c0,426 -141,765 -425,1014 -283,252 -671,376 -1162,376 -495,0 -883,-124 -1164,-376 -282,-249 -423,-588 -423,-1014l894 0c0,206 55,372 164,496 111,126 287,188 529,188 240,0 414,-62 523,-188 111,-124 165,-290 165,-496l899 0zm6814 2103l2073 5544 2079 -5544 1548 0 0 7157 -1194 0 0 -2438 122 -3145 -13 0 -2144 5583 -800 0 -2134 -5568 -15 0 124 3130 0 2438 -1195 0 0 -7157 1549 0zm11637 0l1194 0 0 7157 -1194 0 0 -5150 -13 0 -3186 5150 -1194 0 0 -7157 1194 0 0 5147 15 0 3184 -5147zm3952 4444l0 2713 -1194 0 0 -7157 2796 0c806,0 1428,202 1867,602 440,401 660,942 660,1621 0,684 -220,1226 -660,1624 -439,397 -1061,597 -1867,597l-1602 0zm0 -960l1602 0c452,0 787,-115 1005,-347 218,-233 327,-535 327,-906 0,-369 -109,-674 -327,-912 -218,-240 -553,-359 -1005,-359l-1602 0 0 2524z"/>
  <g id="_774082512">
   <path id="_367542640" class="fil1" d="M22798 17992c0,0 189,-1905 317,-2245 0,0 357,-1638 260,-1804 0,0 286,-938 -516,-837 0,0 -1086,93 -1250,2042 0,0 -61,470 -127,599 0,0 -225,1675 -449,1646 0,0 -863,-238 -1087,-938 0,0 -291,-1141 -388,-1177 0,0 -128,-368 -128,-700 0,0 -158,-1176 -224,-1306 0,0 -291,-1581 -383,-1675 0,0 -127,-274 -163,-671 0,0 -418,-1675 -898,-1610 0,0 -960,-202 -510,1372l188 541c0,0 194,563 164,837 0,0 0,1004 97,1307 0,0 91,1234 158,1472 0,0 97,469 -158,570 0,0 -97,303 -291,-505 0,0 -352,-1573 -480,-1610 0,0 -546,-1840 -740,-1876 0,0 -479,-1335 -576,-1372 0,0 -286,-873 -1087,-570 0,0 -449,570 92,1408 0,0 418,1205 418,1371 0,0 352,1379 449,1545 0,0 418,2079 546,2245 0,0 -66,570 -418,-203 0,0 -449,-967 -766,-1306 0,0 -546,-1104 -643,-1169 0,0 -127,-469 -260,-737 0,0 -316,-1580 -959,-1407 0,0 -771,29 -352,1234 0,0 285,939 449,1177 0,0 515,1876 734,2078 0,0 965,1906 934,2007 0,0 -321,707 -740,72 0,0 -382,-375 -643,-541 0,0 -734,-635 -928,-902 0,0 -414,-405 -577,-773 0,0 -735,-1169 -1153,-801 0,0 -771,433 673,2072 0,0 868,1075 1026,1277 0,0 1250,1408 1317,1610 0,0 1377,2548 1377,2750 0,0 801,1097 1603,1667 0,0 1061,715 2434,0l1010 -231c0,0 1398,-635 1623,-1537 0,0 1025,-2519 1025,-4396z">
    <metadata id="CorelCorpID_1">
     <odm name="Имя" value="_367542640" type="0"/>
    </metadata>
   </path>
   <path id="_367542520" class="fil2" d="M35041 15789c0,0 -188,1906 -316,2245 0,0 -357,1639 -260,1805 0,0 -286,938 515,837 0,0 1087,-94 1250,-2043 0,0 62,-469 128,-599 0,0 224,-1674 449,-1646 0,0 862,239 1087,939 0,0 291,1140 388,1176 0,0 127,368 127,700 0,0 158,1177 225,1307 0,0 291,1581 382,1674 0,0 128,275 164,672 0,0 418,1674 898,1609 0,0 959,202 510,-1371l-189 -541c0,0 -194,-563 -163,-838 0,0 0,-1003 -97,-1306 0,0 -92,-1234 -158,-1473 0,0 -97,-469 158,-570 0,0 97,-303 291,505 0,0 352,1574 480,1610 0,0 546,1841 739,1877 0,0 480,1335 577,1371 0,0 286,874 1087,570 0,0 449,-570 -92,-1407 0,0 -418,-1206 -418,-1372 0,0 -352,-1378 -449,-1544 0,0 -419,-2079 -546,-2245 0,0 66,-570 418,202 0,0 449,967 766,1307 0,0 546,1104 642,1169 0,0 128,469 261,736 0,0 316,1581 959,1408 0,0 771,-29 352,-1235 0,0 -286,-938 -449,-1176 0,0 -515,-1877 -735,-2079 0,0 -964,-1906 -934,-2007 0,0 322,-707 740,-72 0,0 383,376 643,542 0,0 735,635 929,902 0,0 413,404 577,772 0,0 734,1169 1153,801 0,0 770,-433 -674,-2071 0,0 -867,-1076 -1025,-1278 0,0 -1250,-1407 -1317,-1609 0,0 -1378,-2548 -1378,-2750 0,0 -801,-1098 -1602,-1668 0,0 -1061,-714 -2434,0l-1010 231c0,0 -1398,635 -1623,1538 0,0 -1026,2519 -1026,4395z">
    <metadata id="CorelCorpID_2">
     <odm name="Имя" value="_367542520" type="0"/>
    </metadata>
   </path>
   <path id="_367542376" class="fil3" d="M27078 626c0,0 1906,-189 2245,-316 0,0 1638,-357 1805,-260 0,0 938,-286 837,515 0,0 -94,1087 -2043,1250 0,0 -469,61 -599,128 0,0 -1675,224 -1646,449 0,0 239,862 939,1087 0,0 1140,291 1176,388 0,0 368,127 700,127 0,0 1177,158 1307,225 0,0 1581,290 1674,382 0,0 275,128 672,164 0,0 1674,418 1609,898 0,0 202,959 -1371,510l-542 -189c0,0 -563,-194 -837,-163 0,0 -1003,0 -1306,-97 0,0 -1235,-92 -1473,-158 0,0 -469,-97 -570,158 0,0 -303,97 505,291 0,0 1574,352 1610,479 0,0 1841,546 1877,740 0,0 1335,480 1371,577 0,0 873,286 570,1087 0,0 -570,449 -1407,-92 0,0 -1206,-418 -1372,-418 0,0 -1378,-353 -1544,-449 0,0 -2079,-419 -2245,-546 0,0 -570,66 202,418 0,0 967,449 1306,765 0,0 1105,546 1170,643 0,0 469,128 736,261 0,0 1581,316 1407,959 0,0 -28,770 -1234,352 0,0 -938,-286 -1176,-449 0,0 -1877,-515 -2079,-735 0,0 -1906,-964 -2007,-934 0,0 -707,322 -72,740 0,0 375,383 541,643 0,0 636,735 903,929 0,0 404,413 772,577 0,0 1169,734 801,1153 0,0 -433,770 -2071,-674 0,0 -1076,-867 -1278,-1026 0,0 -1407,-1250 -1610,-1316 0,0 -2547,-1378 -2750,-1378 0,0 -1097,-801 -1667,-1602 0,0 -714,-1061 0,-2434l231 -1010c0,0 635,-1399 1538,-1623 0,0 2519,-1026 4395,-1026z">
    <metadata id="CorelCorpID_3">
     <odm name="Имя" value="_367542376" type="0"/>
    </metadata>
   </path>
   <path id="_367542304" class="fil4" d="M29149 21264c0,0 -1905,-189 -2245,-316 0,0 -1638,-357 -1804,-260 0,0 -939,-286 -838,515 0,0 94,1087 2043,1250 0,0 469,62 599,128 0,0 1675,224 1646,449 0,0 -238,862 -938,1087 0,0 -1141,291 -1177,388 0,0 -368,127 -700,127 0,0 -1177,158 -1306,225 0,0 -1581,290 -1675,382 0,0 -274,128 -671,164 0,0 -1675,418 -1610,898 0,0 -202,959 1372,510l541 -189c0,0 563,-194 837,-163 0,0 1003,0 1307,-97 0,0 1234,-92 1472,-158 0,0 469,-97 570,158 0,0 303,97 -505,291 0,0 -1573,352 -1610,480 0,0 -1840,545 -1876,739 0,0 -1336,480 -1372,577 0,0 -873,286 -570,1087 0,0 570,449 1408,-92 0,0 1205,-418 1371,-418 0,0 1379,-352 1545,-449 0,0 2078,-419 2244,-546 0,0 571,66 -202,418 0,0 -967,449 -1306,765 0,0 -1104,546 -1169,643 0,0 -470,128 -737,261 0,0 -1580,316 -1407,959 0,0 29,770 1234,352 0,0 938,-286 1177,-449 0,0 1876,-515 2078,-735 0,0 1906,-964 2007,-934 0,0 707,322 72,740 0,0 -375,383 -541,643 0,0 -635,735 -902,929 0,0 -405,413 -773,577 0,0 -1169,734 -801,1153 0,0 433,770 2072,-674 0,0 1075,-867 1277,-1025 0,0 1408,-1251 1610,-1317 0,0 2548,-1378 2750,-1378 0,0 1097,-801 1667,-1602 0,0 715,-1061 0,-2434l-231 -1010c0,0 -635,-1398 -1537,-1623 0,0 -2519,-1026 -4396,-1026z">
    <metadata id="CorelCorpID_4">
     <odm name="Имя" value="_367542304" type="0"/>
    </metadata>
   </path>
  </g>
 </g>
</svg>
